<svg width="1024" height="1024" viewBox="0 0 1024 1024" xmlns="http://www.w3.org/2000/svg">
  <defs>
    <linearGradient id="g" x1="0%" y1="0%" x2="100%" y2="100%">
      <stop offset="0%" stop-color="#FF2D55"/>
      <stop offset="100%" stop-color="#AF52DE"/>
    </linearGradient>
    <filter id="shadow" x="-20%" y="-20%" width="140%" height="140%">
      <feDropShadow dx="0" dy="24" stdDeviation="24" flood-color="#00000033"/>
    </filter>
  </defs>
  <rect x="96" y="96" width="832" height="832" rx="192" fill="url(#g)" filter="url(#shadow)"/>
  <g fill="#ffffff">
    <path d="M512 260c-132 0-240 108-240 240s108 240 240 240 240-108 240-240S644 260 512 260zm0 104c76 0 136 60 136 136s-60 136-136 136-136-60-136-136 60-136 136-136z"/>
    <path d="M512 356l-84 144h168L512 356z"/>
  </g>
</svg>

